<?xml version="1.0" encoding="UTF-8"?>
<!-- Generator: Adobe Illustrator 25.1.0, SVG Export Plug-In . SVG Version: 6.00 Build 0)  -->
<svg version="1.1" id="Layer_1" xmlns="http://www.w3.org/2000/svg" xmlns:xlink="http://www.w3.org/1999/xlink" x="0px" y="0px" viewBox="0 0 170 60" style="enable-background:new 0 0 170 60;" xml:space="preserve">
<style type="text/css">
	.st0{fill-rule:evenodd;clip-rule:evenodd;fill:#4400FF;}
	.st1{fill:url(#SVGID_1_);}
	.st2{fill-rule:evenodd;clip-rule:evenodd;fill:#40AB5D;}
	.st3{fill-rule:evenodd;clip-rule:evenodd;fill:url(#rect8192_2_);}
	.st4{fill-rule:evenodd;clip-rule:evenodd;fill:url(#rect8199_2_);}
	.st5{fill-rule:evenodd;clip-rule:evenodd;fill:url(#rect8206_2_);}
	.st6{fill-rule:evenodd;clip-rule:evenodd;fill:url(#rect8213_2_);}
	.st7{fill-rule:evenodd;clip-rule:evenodd;fill:url(#rect8220_2_);}
	.st8{fill-rule:evenodd;clip-rule:evenodd;fill:url(#rect8227_2_);}
	.st9{fill-rule:evenodd;clip-rule:evenodd;fill:url(#rect8234_2_);}
	.st10{fill-rule:evenodd;clip-rule:evenodd;fill:url(#rect8241_2_);}
	.st11{fill-rule:evenodd;clip-rule:evenodd;fill:url(#rect8248_2_);}
	.st12{fill:#1ED760;}
	.st13{fill:#100F0D;}
	.st14{fill:#FF0000;}
	.st15{fill:#FFFFFF;}
</style>
<linearGradient id="SVGID_1_" gradientUnits="userSpaceOnUse" x1="86.4582" y1="42.5715" x2="86.4582" y2="11.3904">
	<stop offset="0" style="stop-color:#F7283B"/>
	<stop offset="1" style="stop-color:#FD5B6F"/>
</linearGradient>
<path class="st1" d="M75.8,42.3V21.1h-0.2l-8.5,21.2h-3.3l-8.5-21.2h-0.2v21.2h-3.9V13.6h5l9.1,22.9h0.2l9.1-22.9h5.2v28.7  L75.8,42.3L75.8,42.3z M101.9,42.3h-4.1v-3.6h-0.2c-1.1,2.5-3.3,3.9-6.4,3.9c-4.5,0-7.2-3-7.2-7.8V21.3h4.2V34  c0,3.1,1.6,4.9,4.4,4.9c3.1,0,4.9-2.2,4.9-5.5V21.3h4.2L101.9,42.3L101.9,42.3z M113.5,20.9c4.9,0,7.8,2.7,8,6.6h-3.9  c-0.3-2-1.7-3.3-4.1-3.3c-2.4,0-3.9,1.1-3.9,2.8c0,1.3,0.9,2.2,3.1,2.7l3.3,0.8c4.2,0.9,5.8,2.7,5.8,5.6c0,3.8-3.4,6.4-8.3,6.4  c-5.2,0-8.3-2.5-8.6-6.6h4.2c0.3,2.2,1.9,3.3,4.4,3.3s4.1-1.1,4.1-2.8c0-1.4-0.8-2.2-3-2.7l-3.3-0.8c-3.9-0.9-5.8-2.8-5.8-6  C105.5,23.5,108.7,20.9,113.5,20.9z M125,15.8c0-1.4,1.1-2.5,2.5-2.5s2.5,1.1,2.5,2.5s-1.1,2.5-2.5,2.5S125,17.2,125,15.8L125,15.8z   M125.3,21.3h4.2v21h-4.2V21.3z M147.4,28.5c-0.5-2.2-2-4.1-4.9-4.1c-3.3,0-5.5,2.8-5.5,7.2c0,4.5,2.2,7.2,5.5,7.2  c2.7,0,4.2-1.4,4.9-3.9h4.1c-0.5,4.4-3.9,7.5-8.9,7.5c-6,0-9.7-4.1-9.7-10.8c0-6.6,3.8-10.8,9.7-10.8c5.3,0,8.5,3.4,8.9,7.5  L147.4,28.5L147.4,28.5z M38.3,16.4c-1.1,1.3-2.8,2.4-4.5,2.2c-0.3-1.9,0.6-3.8,1.6-4.9c1.1-1.4,3-2.4,4.5-2.4  C40.1,13.1,39.4,15,38.3,16.4L38.3,16.4z M39.9,18.9c0.9,0,3.8,0.3,5.6,3.1c-0.2,0.2-3.3,2-3.3,6c0,4.7,4.1,6.3,4.1,6.3  c0,0.2-0.6,2.2-2,4.4c-1.3,1.9-2.7,3.8-4.7,3.8c-2,0-2.7-1.3-5-1.3c-2.4,0-3.1,1.3-5,1.3c-2,0-3.6-2-4.9-3.9  c-2.7-3.9-4.7-11-1.9-15.7c1.3-2.4,3.8-3.9,6.3-3.9c2,0,3.9,1.4,5,1.4C35.2,20.3,37.4,18.8,39.9,18.9L39.9,18.9z"/>
</svg>