<?xml version="1.0" encoding="UTF-8" standalone="no"?>
<svg
   id="Layer_2"
   viewBox="0 0 1214.75 1656.68"
   version="1.1"
   sodipodi:docname="jh-logo-shaded.svg"
   inkscape:version="1.1.2 (0a00cf5339, 2022-02-04)"
   xmlns:inkscape="http://www.inkscape.org/namespaces/inkscape"
   xmlns:sodipodi="http://sodipodi.sourceforge.net/DTD/sodipodi-0.dtd"
   xmlns="http://www.w3.org/2000/svg"
   xmlns:svg="http://www.w3.org/2000/svg">
  <defs
     id="defs46" />
  <sodipodi:namedview
     id="namedview44"
     pagecolor="#ffffff"
     bordercolor="#666666"
     borderopacity="1.0"
     inkscape:pageshadow="2"
     inkscape:pageopacity="0.0"
     inkscape:pagecheckerboard="0"
     showgrid="false"
     inkscape:zoom="0.49496582"
     inkscape:cx="608.1228"
     inkscape:cy="827.32986"
     inkscape:window-width="1846"
     inkscape:window-height="1009"
     inkscape:window-x="74"
     inkscape:window-y="34"
     inkscape:window-maximized="1"
     inkscape:current-layer="Layer_2" />
  <g
     id="Layer_1-2"
     style="fill:#ffffff">
    <path
       d="m42.31,1351.24c-.3-25.39,5.17-50.76,14.77-74.21,22.05-53.83,63.45-97.75,110.97-130.34,51.68-35.45,111.48-57.75,172.97-68.97-38.72-10.57-76.09-28.93-106.86-54.25-54.89-45.16-94.27-117-84.75-189.63,5.29-40.35,26.42-76.51,55.88-104.14,16.25-15.24,34.81-27.89,54.67-37.93,8.26-4.17,16.81-7.83,25.5-11.07-26.09,2.56-53.67,6.59-80.12,13,3.1.21,6.19.57,9.26,1.19.31.06.31.57,0,.63-7.32,1.48-14.74,1.47-22.17,1.53-2.79.78-5.56,1.59-8.32,2.42,5.94.07,11.86.3,17.7,1.49.31.06.31.57,0,.63-7.94,1.61-16,1.46-24.08,1.54-1.73.02-3.46.05-5.19.08-5.98,2.06-11.84,4.27-17.53,6.67,1.06.01,2.12.04,3.17.05,8.07.08,16.14-.07,24.08,1.54.31.06.31.57,0,.63-7.94,1.61-16,1.46-24.08,1.54-4.02.04-8.04.11-12.05.18-13.35,6.26-25.62,13.58-36.32,22.13,7.58.15,15.16.31,22.74.39,8.07.08,16.14-.07,24.08,1.54.31.06.31.57,0,.63-7.94,1.61-16,1.46-24.08,1.54-8.33.09-16.66.27-24.99.44-1.08.02-2.15.05-3.23.07-9.27,8.24-17.13,17.55-23.2,28.07.3,0,.59.01.89.02,8.33.16,16.66.35,24.99.44,8.07.08,16.14-.07,24.08,1.54.31.06.31.57,0,.63-7.94,1.61-16,1.46-24.08,1.54-8.33.09-16.66.27-24.99.44-1.15.02-2.31.05-3.47.08-6.98,13.72-9.58,27.04-9.23,40.36,6.15-.11,12.32.14,18.46.22,4.66.05,9.32.07,13.98.16,5.08.1,8.37,1,13,2.75.09.03.09.15,0,.18-4.28,1.62-7.34,2.56-12,2.74-4.98.19-9.99.12-14.97.17-6,.07-12.05.32-18.07.23,5.98,63,72.85,127.72,51.25,238.6-.51,2.63-1.07,5.18-1.65,7.7,7.69-.21,15.41.13,23.08.21,11.99.12,23.97.23,35.95.5,11.66.26,23.3.73,34.95.57,11.42-.15,22.76-.79,34.06,1.08.36.06.36.66,0,.72-10.98,1.82-21.96,1.24-33.06,1.09-11.99-.16-23.96.29-35.95.56-11.65.26-23.3.37-34.95.49-8.43.09-16.94.49-25.39.18-1.61,6.32-3.43,12.29-5.43,17.94,14.41-.77,28.95.15,43.35.43,8.33.16,16.66.35,24.99.44,8.07.08,16.14-.07,24.08,1.54.31.06.31.57,0,.63-7.94,1.61-16,1.46-24.08,1.54-8.33.09-16.66.27-24.99.44-15.06.3-30.28,1.29-45.34.32-2.4,6.21-5.02,12.02-7.81,17.49,8.09-.53,16.25-.12,24.35-.03,4.66.05,9.32.07,13.98.16,5.08.1,8.37,1,13,2.75.09.03.09.15,0,.18-4.28,1.62-7.34,2.56-12,2.74-4.98.19-9.99.12-14.97.17-9.11.11-18.31.6-27.38-.28-3.04,5.47-6.25,10.6-9.58,15.45,4.26-.51,8.61-.78,12.81-.76,2.94.01,5.9.01,8.83.22,3.72.26,7.1,1.31,10.79,1.71.36.04.36.52,0,.56-3.34.36-6.44,1.37-9.81,1.63-3.25.26-6.54.28-9.81.3-4.81.02-9.82-.34-14.66-1.01-3.37,4.74-6.84,9.22-10.39,13.51.89-.02,1.79-.03,2.69-.03,6.43,0,14.36-.69,20.2,2.51.12.07.12.26,0,.32-5.84,3.2-13.78,2.51-20.2,2.51-2.37,0-4.71-.06-7.05-.17-2.49,2.88-5.01,5.68-7.53,8.42,4.89.12,9.87.22,13.97,3.19.18.13.18.36,0,.49-4.46,3.24-9.99,3.06-15.29,3.23-1.76.05-3.49.08-5.21.07-2.41,2.54-4.8,5.05-7.18,7.54,3.04.22,6.23.73,8.13,3.23.02.02.02.07,0,.09-2.26,2.97-6.37,3.13-9.85,3.34-1.59.09-3.14.12-4.67.08-22.19,23.68-41.32,47.72-45.25,89.14-5.62,59.15,23.15,118.02,68.31,170.59-.01-.02-.02-.04-.03-.06-15.71-28.55-26.27-60.39-26.66-93.2Z"
       id="path2"
       style="fill:#ffffff" />
    <path
       d="m61.15,1298.11c-7.68,25.18-10.2,51.92-5.64,77.95,5.43,31.03,19.35,59.83,36.87,85.78,6.58,9.75,13.7,19.1,21.22,28.13,56.54,51.11,125.41,93.14,185.26,118.93,81.34,35.06,157.76,45.2,215.21,46.78v-151.97c-12.96-.38-26.99-1.23-41.93-2.79-68.92-7.18-198.39-20.68-273.29-116.61-15.48-19.83-66.99-85.4-49.83-159.92,8.01-34.8,29.79-66.31,61.43-91.05-18.9,10.21-36.98,21.9-53.94,35.14-42.55,33.22-79.41,77.34-95.37,129.64Z"
       id="path4"
       style="fill:#ffffff" />
    <path
       d="m372.08,1337.03c-6.56,1.31-12.47,1.97-18.38,1.97l3.94,57.09c3.28,0,11.81,0,16.41-.66,84.66-8.53,139.13-63,139.13-154.22v-408.19h-67.59v404.91c0,55.13-25.59,89.25-73.5,99.1Z"
       id="path6"
       style="fill:#ffffff" />
    <path
       d="m677.52,267.62c.12-.59-.53-1.26-1.26-.93-5.68,2.56-12.36,4.03-18.32,6-5.5,1.82-11.09,3.4-16.75,4.65-11.46,2.52-23.55,3.48-35.27,3.26-11.64-.22-23.15-1.37-34.42-4.39-5.62-1.51-11.19-3.29-16.74-5.04-2.86-.9-5.65-1.97-8.51-2.88-3.2-1.02-5.67-3.11-9.06-3.59-.48-.07-.85.29-.82.69.01.13.07.28.18.41,2.26,2.66,4.97,3.17,7.87,4.91,2.61,1.57,4.9,3.17,7.64,4.6,5.44,2.83,11,5.12,16.88,6.9,11.94,3.61,24.47,6.2,36.97,6.49,12.35.29,24.32-1.41,36.25-4.57,6.02-1.6,11.9-3.59,17.65-6,6.4-2.68,11.4-6.51,17.29-9.97.24-.14.37-.33.41-.53Z"
       id="path8"
       style="fill:#ffffff" />
    <path
       d="m568.91,1522.78c.3.36.62.58.95.65v17.43c-.33.07-.65.29-.95.65-1.75,2.1-3.03,8.74-3.03,16.63s1.28,14.53,3.03,16.63c.3.36.62.58.95.65v17.42c-.33.07-.65.29-.95.65-1.75,2.1-3.03,8.74-3.03,16.63s1.28,14.53,3.03,16.63c.3.36.62.58.95.65v27.4h74v-563.63h54.11v297.07h74v-555.23h-74v184.16h-54.11v-216.4h-74v49.18c3.02,3.44,5.23,14.53,5.23,27.69s-2.21,24.25-5.23,27.69v115.64c-2.22.5-3.98,8.03-3.98,17.28s1.76,16.78,3.98,17.28v17.43c-2.22.5-3.98,8.03-3.98,17.28s1.76,16.78,3.98,17.28v17.42c-2.22.5-3.98,8.03-3.98,17.28s1.76,16.78,3.98,17.28v17.43c-2.22.5-3.98,8.03-3.98,17.28s1.76,16.78,3.98,17.28v17.42c-2.22.5-3.98,8.03-3.98,17.28s1.76,16.78,3.98,17.28v17.43c-2.22.5-3.98,8.03-3.98,17.28s1.76,16.78,3.98,17.28v17.42c-2.22.5-3.98,8.03-3.98,17.28s1.76,16.78,3.98,17.28v17.42c-2.22.5-3.98,8.03-3.98,17.28s1.76,16.78,3.98,17.28v17.42c-2.22.5-3.98,8.03-3.98,17.28s1.76,16.78,3.98,17.28v17.42c-.34.08-.67.3-.99.69-1.73,2.15-2.99,8.76-2.99,16.59s1.28,14.53,3.03,16.63Z"
       id="path10"
       style="fill:#ffffff" />
    <path
       d="m648.67,748.43c-1.43-.1-2.87-.15-4.31-.17-13-.42-25.98-.56-39.01-.46-13.17-.11-26.31.04-39.46.47-1.23.02-2.46.07-3.69.15-3.37.12-6.74.25-10.11.41-2.53.12-2.54,3.82,0,3.94,3.32.16,6.63.28,9.94.4,1.42.1,2.86.14,4.3.17,13,.42,25.99.56,39.02.46,13.18.11,26.31-.04,39.46-.47,1.23-.02,2.46-.07,3.68-.15,3.37-.12,6.74-.25,10.12-.41,2.53-.12,2.54-3.82,0-3.94-3.32-.16-6.63-.28-9.94-.4Z"
       id="path12"
       style="fill:#ffffff" />
    <path
       d="m658.61,709.53c-3.32-.16-6.63-.28-9.94-.4-1.42-.1-2.86-.14-4.3-.17-13-.42-25.99-.56-39.02-.46-13.18-.11-26.31.04-39.46.47-1.23.02-2.46.07-3.68.15-3.37.12-6.74.25-10.12.41-2.53.12-2.54,3.82,0,3.94,3.32.16,6.63.28,9.94.4,1.43.1,2.87.15,4.31.17,13,.42,25.98.56,39.01.46,13.17.11,26.31-.04,39.46-.47,1.23-.02,2.46-.07,3.69-.15,3.37-.12,6.74-.25,10.11-.41,2.53-.12,2.54-3.82,0-3.94Z"
       id="path14"
       style="fill:#ffffff" />
    <path
       d="m658.61,670.24c-3.32-.16-6.63-.28-9.94-.4-1.42-.1-2.86-.14-4.3-.17-13-.42-25.99-.56-39.02-.46-13.17-.11-26.31.04-39.46.47-1.23.02-2.46.07-3.69.15-3.37.12-6.74.25-10.11.41-2.53.12-2.54,3.82,0,3.94,3.32.16,6.63.28,9.94.4,1.43.1,2.87.15,4.31.17,13,.42,25.98.56,39.01.46,13.17.11,26.31-.04,39.46-.47,1.23-.02,2.46-.07,3.69-.15,3.37-.12,6.74-.25,10.11-.41,2.53-.12,2.54-3.82,0-3.94Z"
       id="path16"
       style="fill:#ffffff" />
    <path
       d="m658.61,630.95c-3.32-.16-6.63-.28-9.94-.4-1.43-.1-2.87-.15-4.31-.17-13-.42-25.98-.56-39.01-.46-13.17-.11-26.31.04-39.46.47-1.23.02-2.46.07-3.69.15-3.37.12-6.74.25-10.11.41-2.53.12-2.54,3.82,0,3.94,3.32.16,6.63.28,9.94.4,1.42.1,2.86.14,4.3.17,13,.42,25.99.56,39.02.46,13.17.11,26.31-.04,39.46-.47,1.23-.02,2.46-.07,3.69-.15,3.37-.12,6.74-.25,10.11-.41,2.53-.12,2.54-3.82,0-3.94Z"
       id="path18"
       style="fill:#ffffff" />
    <path
       d="m658.61,591.65c-3.32-.16-6.63-.28-9.94-.4-1.43-.1-2.87-.15-4.31-.17-13-.42-25.98-.56-39.01-.46-13.17-.11-26.31.04-39.46.47-1.23.02-2.46.07-3.69.15-3.37.12-6.74.25-10.11.41-2.53.12-2.54,3.82,0,3.94,3.32.16,6.63.28,9.94.4,1.42.1,2.86.14,4.3.17,13,.42,25.99.56,39.02.46,13.18.11,26.31-.04,39.46-.47,1.23-.02,2.46-.07,3.68-.15,3.37-.12,6.74-.25,10.12-.41,2.53-.12,2.54-3.82,0-3.94Z"
       id="path20"
       style="fill:#ffffff" />
    <path
       d="m658.61,552.36c-3.32-.16-6.63-.28-9.94-.4-1.42-.1-2.86-.14-4.3-.17-13-.42-25.99-.56-39.02-.46-13.18-.11-26.31.04-39.46.47-1.23.02-2.46.07-3.68.15-3.37.12-6.74.25-10.12.41-2.53.12-2.54,3.82,0,3.94,3.32.16,6.63.28,9.94.4,1.43.1,2.87.15,4.31.17,13,.42,25.98.56,39.01.46,13.17.11,26.31-.04,39.46-.47,1.23-.02,2.46-.07,3.69-.15,3.37-.12,6.74-.25,10.11-.41,2.53-.12,2.54-3.82,0-3.94Z"
       id="path22"
       style="fill:#ffffff" />
    <path
       d="m658.61,513.07c-3.32-.16-6.63-.28-9.94-.4-1.42-.1-2.86-.14-4.3-.17-13-.42-25.99-.56-39.02-.46-13.17-.11-26.31.04-39.46.47-1.23.02-2.46.07-3.69.15-3.37.12-6.74.25-10.11.41-2.53.12-2.54,3.82,0,3.94,3.32.16,6.63.28,9.94.4,1.43.1,2.87.15,4.31.17,13,.42,25.98.56,39.01.46,13.17.11,26.31-.04,39.46-.47,1.23-.02,2.46-.07,3.69-.15,3.37-.12,6.74-.25,10.11-.41,2.53-.12,2.54-3.82,0-3.94Z"
       id="path24"
       style="fill:#ffffff" />
    <path
       d="m658.61,473.78c-3.32-.16-6.63-.28-9.94-.4-1.42-.1-2.86-.14-4.3-.17-13-.42-25.99-.56-39.02-.46-13.17-.11-26.31.04-39.46.47-1.23.02-2.46.07-3.69.15-3.37.12-6.74.25-10.11.41-2.53.12-2.54,3.82,0,3.94,3.32.16,6.63.28,9.94.4,1.43.1,2.87.15,4.31.17,13,.42,25.98.56,39.01.46,13.17.11,26.31-.04,39.46-.47,1.23-.02,2.46-.07,3.69-.15,3.37-.12,6.74-.25,10.11-.41,2.53-.12,2.54-3.82,0-3.94Z"
       id="path26"
       style="fill:#ffffff" />
    <path
       d="m658.61,434.48c-3.32-.16-6.63-.28-9.94-.4-1.43-.1-2.87-.15-4.31-.17-13-.42-25.98-.56-39.01-.46-13.17-.11-26.31.04-39.46.47-1.23.02-2.46.07-3.69.15-3.37.12-6.74.25-10.11.41-2.53.12-2.54,3.82,0,3.94,3.32.16,6.63.28,9.94.4,1.42.1,2.86.14,4.3.17,13,.42,25.99.56,39.02.46,13.17.11,26.31-.04,39.46-.47,1.23-.02,2.46-.07,3.69-.15,3.37-.12,6.74-.25,10.11-.41,2.53-.12,2.54-3.82,0-3.94Z"
       id="path28"
       style="fill:#ffffff" />
    <path
       d="m658.61,395.19c-3.32-.16-6.63-.28-9.94-.4-1.43-.1-2.87-.15-4.31-.17-13-.42-25.98-.56-39.01-.46-13.17-.11-26.31.04-39.46.47-1.23.02-2.46.07-3.69.15-3.37.12-6.74.25-10.11.41-2.53.12-2.54,3.82,0,3.94,3.32.16,6.63.28,9.94.4,1.42.1,2.86.14,4.3.17,13,.42,25.99.56,39.02.46,13.18.11,26.31-.04,39.46-.47,1.23-.02,2.46-.07,3.68-.15,3.37-.12,6.74-.25,10.12-.41,2.53-.12,2.54-3.82,0-3.94Z"
       id="path30"
       style="fill:#ffffff" />
    <path
       d="m658.61,355.9c-3.32-.16-6.63-.28-9.94-.4-1.42-.1-2.86-.14-4.3-.17-13-.42-25.99-.56-39.02-.46-13.18-.11-26.31.04-39.46.47-1.23.02-2.46.07-3.68.15-3.37.12-6.74.25-10.12.41-2.53.12-2.54,3.82,0,3.94,3.32.16,6.63.28,9.94.4,1.43.1,2.87.15,4.31.17,13,.42,25.98.56,39.01.46,13.17.11,26.31-.04,39.46-.47,1.23-.02,2.46-.07,3.69-.15,3.37-.12,6.74-.25,10.11-.41,2.53-.12,2.54-3.82,0-3.94Z"
       id="path32"
       style="fill:#ffffff" />
    <path
       d="m658.61,316.6c-3.32-.16-6.63-.28-9.94-.4-1.42-.1-2.86-.14-4.3-.17-13-.42-25.99-.56-39.02-.46-13.17-.11-26.31.04-39.46.47-1.23.02-2.46.07-3.69.15-3.37.12-6.74.25-10.11.41-2.53.12-2.54,3.82,0,3.94,3.32.16,6.63.28,9.94.4,1.43.1,2.87.15,4.31.17,13,.42,25.98.56,39.01.46,13.17.11,26.31-.04,39.46-.47,1.23-.02,2.46-.07,3.69-.15,3.37-.12,6.74-.25,10.11-.41,2.53-.12,2.54-3.82,0-3.94Z"
       id="path34"
       style="fill:#ffffff" />
    <path
       d="m1161.5,1351.96c.4-24.35-4.88-48.46-13.98-70.99-20.95-51.9-61.81-94.46-107.43-125.71-12.79-8.76-26.06-16.72-39.72-23.92,33.76,25.16,57.01,57.82,65.35,94.04,17.16,74.52-34.35,140.09-49.83,159.92-74.89,95.94-204.37,109.43-273.29,116.61-14.94,1.56-28.98,2.41-41.93,2.79v151.97c57.45-1.58,133.87-11.72,215.21-46.78,58.78-25.33,126.26-66.32,182.22-116.2,13.59-15.93,25.89-32.9,36.24-51.12,15.72-27.67,26.63-58.53,27.16-90.61Z"
       id="path36"
       style="fill:#ffffff" />
    <path
       d="m1052.47,837.01c-4.37-37.46-24.54-71.13-51.63-96.71-31.69-29.92-70.88-46.71-111.14-61.57-20.49-1.12-38.87-1.53-53.43-1.84-55.3-1.17-102.51,4.83-138.24,11.64V231.66c1.95-4.8,3.2-9.96,3.66-15.43.6-7.17,0-14.26-.99-21.33,1.62-.02,3.23-.57,4.85-1.11,2.23-.54,4.15-1.88,5.89-3.38,2.61-2.13,4.44-2.43,5.94-1.92,1.21,9.54,8.62,16.89,17.6,16.89,9.83,0,17.8-8.79,17.8-19.63s-7.97-19.63-17.8-19.63c-8.97,0-16.37,7.33-17.6,16.85-.85.27-1.83.3-3-.08-2.08-.71-3.94-2.87-5.89-3.99-.84-.55-2.01-.88-2.94-1.19-2.73-1.14-5.22-1.34-7.69-.64-1.27-8.26-2.16-16.54-1.38-24.92.73-7.97,2.87-15.7,4.77-23.48,1.44-.12,2.87-.61,4.31-1.09,2.23-.54,4.15-1.88,5.89-3.38,2.61-2.13,4.44-2.43,5.94-1.92,1.21,9.54,8.62,16.89,17.6,16.89,9.83,0,17.8-8.79,17.8-19.63s-7.97-19.63-17.8-19.63c-8.97,0-16.37,7.33-17.6,16.85-.85.27-1.83.3-3-.08-2.08-.71-3.94-2.87-5.89-3.99-.84-.55-2.01-.88-2.94-1.19-.4-.17-.79-.3-1.19-.43.78-9.38.11-18.72-.83-28.17-.69-6.92-1.22-13.76-1.2-20.59,1.07-.21,2.15-.57,3.22-.93,2.23-.54,4.15-1.88,5.89-3.38,2.61-2.13,4.44-2.43,5.94-1.92,1.21,9.54,8.62,16.89,17.6,16.89,9.83,0,17.8-8.79,17.8-19.63s-7.97-19.63-17.8-19.63c-8.97,0-16.37,7.33-17.6,16.85-.85.27-1.83.3-3-.08-2.08-.71-3.94-2.86-5.89-3.99-.84-.55-2.01-.88-2.94-1.19-.58-.24-1.15-.43-1.71-.59.1-.54.19-1.08.3-1.62,2.63-12.95,7.27-25.38,11.89-37.73,1.25-3.34-3.28-6.89-6.21-4.78-16.92,12.23-38.82,4.54-57.55,2.13-13.97-1.8-29.23-1.1-40.62,6.97-.21,1.05-.4,2.08-.56,3.05-.64,4.01-1.3,8.02-1.95,12.03-.6,3.68-.49,7.61-1.63,11.15-.11.36-.61.36-.72,0-1.22-3.77-1.15-8.15-1.78-12.08-.6-3.7-1.2-7.4-1.8-11.11-.11-.68-.24-1.39-.38-2.12-11.5-8.94-27.38-9.76-41.87-7.9-18.73,2.41-40.62,10.11-57.55-2.13-2.91-2.1-7.47,1.42-6.21,4.78,4.08,10.92,8.17,21.88,10.89,33.24.5,2.11.91,4.21,1.28,6.32-.4.13-.79.26-1.19.39-2.23.54-4.15,1.88-5.89,3.38-2.61,2.13-4.44,2.43-5.94,1.92-1.21-9.54-8.62-16.89-17.6-16.89-9.83,0-17.8,8.79-17.8,19.63s7.97,19.63,17.8,19.63c8.97,0,16.37-7.33,17.6-16.85.85-.27,1.83-.3,3,.08,2.08.71,3.94,2.86,5.89,3.99.84.55,2.01.88,2.94,1.19.94.39,1.86.66,2.75.83.04,3.9-.09,7.81-.41,11.77-.98,12.06-2.89,24.15-1.82,36.28.03.34.07.68.1,1.02-.21.07-.42.14-.63.21-2.23.54-4.15,1.88-5.89,3.38-2.61,2.13-4.44,2.43-5.94,1.92-1.21-9.54-8.62-16.89-17.6-16.89-9.83,0-17.8,8.79-17.8,19.63s7.97,19.63,17.8,19.63c8.97,0,16.37-7.33,17.6-16.85.85-.27,1.83-.3,3,.08,2.08.71,3.94,2.86,5.89,3.99.84.55,2.01.88,2.94,1.19,1.31.55,2.57.86,3.79.98,1.14,4.83,2.37,9.65,3.36,14.52,2.25,11.03,1.88,21.88.22,32.96-.05.3-.1.6-.14.9-.45-.12-.89-.22-1.35-.3-1.96-.29-3.92.4-5.89,1.05-2.23.54-4.15,1.88-5.89,3.38-2.61,2.13-4.44,2.43-5.94,1.92-1.21-9.54-8.62-16.89-17.6-16.89-9.83,0-17.8,8.79-17.8,19.63s7.97,19.63,17.8,19.63c8.97,0,16.37-7.33,17.6-16.85.85-.27,1.83-.3,3,.08,2.08.71,3.94,2.86,5.89,3.99.84.55,2.01.88,2.94,1.19,1.53.64,2.99.98,4.41,1.04-.61,4.37-1.08,8.75-1.23,13.17-.28,8.32.78,16.73,3.9,24.43v454.82c-35.55-6.69-82.23-12.52-136.76-11.36-13.88.29-31.22.68-50.56,1.68-.2.13-.42.25-.66.34-23.74,8.72-47.71,17.61-69.72,30.25-20.1,11.54-38.7,25.86-54.32,43.02-24.5,26.9-40.32,60.96-41.86,97.53-1.38,32.61,7.27,65.18,22.28,93.99,10.44,20.04,23.8,38.3,39.34,54.54-5.08-7.08-9.48-14.9-12.95-23.59-12.3-30.75-15.58-78.52,9.04-108.42,35.62-43.28,126.36-48.32,202.78,13.85l-.07-62.15h113.32c-.11-1.59-.22-3.18-.33-4.77h.51V255.98c.55.38,1.1.76,1.68,1.13,26.67,17.26,67.23,17.84,67.23,17.84,14.8.21,40.83.27,66.1-14.51,2.2-1.29,4.9-2.92,7.77-4.94v561.43h1.72c-.02.33-.05.67-.07,1h113.32l-.07,62.15c76.42-62.17,167.16-57.13,202.78-13.85,24.61,29.91,21.34,77.67,9.04,108.42-2.9,7.25-6.45,13.9-10.49,20.02,39.28-42.39,65.03-99.37,58.23-157.66ZM516.22,22.97c-2.54,0-2.53-3.94,0-3.94s2.53,3.94,0,3.94Zm6.96,158.72s0,0,0,0c.31-1.93.62-3.86.89-5.8-.31,2.19-.6,4.1-.88,5.81Zm17.62,67.89c1.4.86,2.91,1.73,4.52,2.6-1.22-.66-2.78-1.51-4.52-2.6Zm44.84-208.52c-.39.81-1.6,1.29-2.44.99-2.46-.87-2.73-2.09-3.9-4.31-1.31-2.48-3.01-4.66-5.12-6.51-4.49-3.94-9.92-6.53-15.87-7.12-10.18-1.01-19.61,5.13-29.54,2.88,17.73,11.31,6.07,37.51,3.25,53.69-2.4,13.76,2.19,26.09,7.92,38.38,2.37,5.09,4.67,10.36,5.97,15.84,1.04,4.41,2.35,10.28-.72,13.99-1.06,1.28-3.21.78-3.98-.51-1.33-2.25-.97-4.08-1.07-6.61-.12-2.98-.61-5.96-1.27-8.87-1.13-5.06-2.91-9.95-4.6-14.84-3.43-9.92-7.87-19.31-7.05-30.09.91-11.95,7.42-22.35,8.71-34.23,1.07-9.89-.99-22.6-10.5-27.74-.08-.04-.13-.11-.16-.17-.35-.23-.04-.86.38-.73,13.44,4.11,26.37-7.19,40.16-4.02,5.37,1.23,9.98,3.75,13.93,7.58,3.09,2.99,8.1,7.9,5.9,12.41Zm24.65,159.68c-.11.33-.29.62-.55.86-.49.49-1.21.78-1.9.78-.73,0-1.37-.3-1.9-.78-.53-.48-.76-1.2-.79-1.9-.01-.37.06-.71.23-1.03.11-.33.29-.62.55-.86.49-.49,1.21-.79,1.9-.79.73,0,1.37.3,1.9.79.53.48.75,1.2.79,1.9.01.37-.06.71-.23,1.03Zm.4-20.31c-.13.39-.34.72-.64,1-.57.56-1.41.91-2.21.91-.85,0-1.6-.35-2.21-.91-.61-.56-.88-1.4-.91-2.2-.02-.43.07-.83.27-1.2.13-.39.34-.72.64-1,.57-.56,1.41-.91,2.21-.91.85,0,1.6.35,2.21.91.61.56.88,1.4.91,2.2.02.43-.07.83-.27,1.2Zm.42-19.54c-.14.44-.39.83-.74,1.15-.32.35-.71.59-1.15.74-.43.22-.89.33-1.38.31-.97,0-1.83-.4-2.53-1.05-.44-.45-.75-.97-.92-1.58-.04-.32-.09-.63-.13-.95-.02-.49.08-.95.31-1.38.14-.44.39-.83.74-1.15.32-.35.71-.59,1.15-.74.43-.22.89-.33,1.38-.31.97,0,1.83.4,2.53,1.05.44.45.75.97.92,1.58.04.32.09.63.13.95.02.49-.08.95-.31,1.38Zm.24-27.97c-.21.9-.87,1.63-1.63,2.11-.75.48-1.88.59-2.73.36-.8-.22-1.73-.86-2.12-1.62-.14-.27-.26-.54-.38-.83-.35-.82-.34-1.54-.16-2.41.21-1.03,1.06-1.84,1.99-2.23.41-.22.85-.31,1.33-.3.62,0,1.2.16,1.74.47.74.34,1.23,1.02,1.59,1.73.44.88.58,1.76.36,2.72Zm-.15-30.62c-.86.86-2.14,1.39-3.36,1.39-2.67,0-4.64-2.18-4.76-4.75-.05-1.18.57-2.54,1.39-3.36.86-.86,2.14-1.39,3.36-1.39,2.67,0,4.64,2.18,4.76,4.75.05,1.18-.57,2.54-1.39,3.36Zm2.45-44.46c0,.53-.14,1.03-.4,1.49-.14.5-.39.94-.76,1.3-.42.64-.97,1.15-1.66,1.52-.47.2-.94.4-1.41.6-.52.07-1.05.14-1.57.21-.82.03-1.58-.14-2.28-.51-.5-.14-.94-.39-1.31-.76-.44-.26-.8-.62-1.06-1.06-.52-.57-.88-1.24-1.06-2.01-.07-.52-.14-1.05-.21-1.57.06-.57.1-1.15.23-1.71.18-.74.52-1.39,1.02-1.94.25-.43.59-.77,1.02-1.02.55-.5,1.2-.84,1.94-1.02.03,0,.06,0,.1-.01.01,0,.02,0,.03,0,.41-.09.83-.15,1.27-.17l.12-.02s.04,0,.06,0c-.05,0-.1.01-.15.02,1.14-.05,2.32.16,3.27.77.4.31.8.62,1.2.92.31.4.62.8.93,1.2.2.47.4.94.6,1.41.25.79.28,1.57.11,2.36Zm74.33-32.02c-.03.06-.07.13-.16.17-9.51,5.14-11.57,17.85-10.5,27.74,1.29,11.88,7.8,22.28,8.71,34.23.82,10.78-3.61,20.16-7.05,30.09-1.69,4.89-3.47,9.78-4.6,14.84-.65,2.91-1.14,5.89-1.27,8.87-.1,2.54.26,4.36-1.07,6.61-.77,1.29-2.91,1.8-3.98.51-3.08-3.72-1.76-9.58-.72-13.99,1.29-5.48,3.6-10.75,5.97-15.84,5.72-12.3,10.32-24.62,7.92-38.38-2.82-16.18-14.48-42.38,3.24-53.69-9.94,2.25-19.37-3.88-29.54-2.88-5.96.59-11.38,3.18-15.87,7.12-2.11,1.85-3.81,4.02-5.12,6.51-1.17,2.22-1.44,3.43-3.9,4.31-.84.3-2.04-.18-2.44-.99-2.2-4.51,2.81-9.42,5.9-12.41,3.95-3.83,8.56-6.34,13.93-7.58,13.79-3.17,26.72,8.13,40.16,4.02.42-.13.73.5.38.73Zm9.05-6.8c2.54,0,2.53,3.94,0,3.94s-2.53-3.94,0-3.94Z"
       id="path38"
       style="fill:#ffffff" />
    <path
       d="m1214.05,1274.91c-3.99-42-23.6-66.13-46.18-90.13-1.23,0-2.47-.02-3.74-.1-3.49-.2-7.59-.36-9.85-3.34-.02-.02-.02-.07,0-.09,1.71-2.26,4.49-2.89,7.25-3.16-2.4-2.51-4.82-5.04-7.24-7.61-1.41,0-2.82-.03-4.26-.07-5.3-.17-10.83,0-15.29-3.23-.18-.13-.18-.36,0-.49,3.85-2.8,8.48-3.05,13.08-3.17-2.5-2.73-4.99-5.53-7.46-8.4-2.07.08-4.14.13-6.23.13-6.42,0-14.36.69-20.2-2.51-.12-.07-.12-.26,0-.32,5.84-3.2,13.77-2.51,20.2-2.51.62,0,1.24.01,1.86.02-3.52-4.3-6.97-8.79-10.3-13.54-4.92.7-10.03,1.06-14.92,1.05-3.26-.01-6.56-.04-9.81-.3-3.37-.27-6.47-1.27-9.81-1.63-.36-.04-.36-.52,0-.56,3.68-.4,7.07-1.45,10.79-1.71,2.93-.2,5.89-.21,8.83-.22,4.31-.02,8.79.26,13.15.8-3.29-4.85-6.46-9.97-9.46-15.44-8.9.81-17.92.33-26.85.23-4.99-.06-9.99.02-14.97-.17-4.67-.18-7.72-1.12-12-2.74-.09-.03-.09-.15,0-.18,4.63-1.75,7.93-2.65,13-2.75,4.66-.09,9.32-.11,13.98-.16,7.92-.09,15.91-.48,23.83,0-3.03-6.03-5.85-12.47-8.4-19.39-14.69.86-29.54-.1-44.23-.39-8.33-.16-16.66-.35-24.99-.44-8.07-.08-16.14.07-24.08-1.54-.31-.06-.31-.57,0-.63,7.94-1.61,16-1.46,24.08-1.54,8.33-.09,16.66-.27,24.99-.44,14.05-.28,28.24-1.16,42.31-.49-1.89-5.63-3.61-11.57-5.13-17.86-8.2.27-16.46-.12-24.64-.2-11.65-.12-23.3-.23-34.95-.49-11.99-.27-23.96-.72-35.95-.56-11.1.15-22.08.73-33.06-1.09-.36-.06-.36-.66,0-.72,11.29-1.87,22.63-1.23,34.06-1.08,11.66.16,23.3-.31,34.95-.57,11.98-.27,23.97-.38,35.95-.5,7.45-.08,14.94-.4,22.4-.23-.33-1.54-.66-3.09-.97-4.67-21.71-111.47,45.97-176.28,51.34-239.6-6.05.09-12.12-.15-18.16-.22-4.99-.06-9.99.02-14.97-.17-4.67-.18-7.72-1.12-12-2.74-.09-.03-.09-.15,0-.18,4.63-1.75,7.93-2.65,13-2.75,4.66-.1,9.32-.11,13.98-.16,6.14-.07,12.32-.32,18.48-.22.2-13.31-2.59-26.63-9.78-40.37-.98-.02-1.96-.05-2.94-.07-8.33-.16-16.66-.35-24.99-.44-8.07-.08-16.14.07-24.08-1.54-.31-.06-.31-.57,0-.63,7.94-1.61,16-1.46,24.08-1.54,8.33-.09,16.66-.27,24.99-.44.11,0,.22,0,.33,0-6.25-10.55-14.33-19.87-23.82-28.1-.69-.02-1.38-.03-2.06-.05-8.33-.16-16.66-.35-24.99-.44-8.07-.08-16.14.07-24.08-1.54-.31-.06-.31-.57,0-.63,7.94-1.61,16-1.46,24.08-1.54,7.17-.07,14.35-.22,21.52-.37-11.01-8.61-23.64-15.94-37.35-22.19-3.27-.06-6.53-.11-9.8-.15-8.07-.08-16.14.07-24.08-1.54-.31-.06-.31-.57,0-.63,7.94-1.61,16-1.46,24.08-1.54.27,0,.55,0,.82-.01-5.92-2.42-12.01-4.68-18.23-6.75-.71,0-1.42-.02-2.14-.03-8.07-.08-16.14.07-24.08-1.54-.31-.06-.31-.57,0-.63,4.82-.98,9.68-1.3,14.57-1.43-2.97-.87-5.96-1.71-8.96-2.51-6.17-.06-12.32-.26-18.39-1.5-.31-.06-.31-.57,0-.63,2.06-.42,4.13-.71,6.2-.93-24.32-5.71-49.49-9.44-73.52-11.91,10.23,3.98,20.21,8.57,29.83,13.86,21.75,11.96,41.81,27.23,58.48,45.66,26.35,29.13,43.32,65.54,45.38,104.99,1.82,34.83-7.47,69.61-23.43,100.4-34.16,65.93-98.47,111.29-169.26,130.7.74.13,1.48.26,2.22.39,68.15,12.63,134.42,39.61,189.32,82.31,44.33,34.48,82.21,80.46,98.77,134.82,7.92,25.99,10.34,53.38,6.19,80.27-3.92,25.38-13.55,49.59-26.22,71.92,46.09-53.05,75.62-112.62,69.94-172.47Z"
       id="path40"
       style="fill:#ffffff" />
  </g>
</svg>
